<?xml version="1.0" encoding="UTF-8"?>
<svg xmlns="http://www.w3.org/2000/svg" width="68" height="68" viewBox="0 0 68 68" fill="none">
  <path d="M47.593 12.8674H12.7354C10.3229 12.8674 8.36719 14.8231 8.36719 17.2356V58.4256C8.36719 60.8381 10.3229 62.7938 12.7354 62.7938H47.593C50.0055 62.7938 51.9612 60.8381 51.9612 58.4256V17.2356C51.9612 14.8231 50.0055 12.8674 47.593 12.8674Z" stroke="#565A56" stroke-width="2.83333" stroke-linecap="round" stroke-linejoin="round"></path>
  <path d="M60.6721 8.52835V49.7184C60.6492 50.8565 60.1829 51.9408 59.3725 52.7402C58.5621 53.5397 57.4716 53.9912 56.3332 53.9986H52.1116V17.2354C52.1003 16.6567 51.9741 16.086 51.7402 15.5564C51.5064 15.0269 51.1697 14.5491 50.7496 14.1509C50.3295 13.7526 49.8345 13.4418 49.2932 13.2365C48.752 13.0313 48.1754 12.9356 47.5968 12.9552H17.0781V8.52835C17.0781 7.36983 17.5383 6.25877 18.3575 5.43957C19.1767 4.62038 20.2878 4.16016 21.4463 4.16016H56.3332C57.4867 4.1679 58.5902 4.63153 59.4031 5.44989C60.2159 6.26825 60.6721 7.37489 60.6721 8.52835Z" stroke="#565A56" stroke-width="2.83333" stroke-linecap="round" stroke-linejoin="round"></path>
  <path d="M24.7969 32.4678L35.5558 43.2267" stroke="#565A56" stroke-width="2.83333" stroke-linecap="round" stroke-linejoin="round"></path>
  <path d="M24.7969 43.2264L35.5558 32.4675" stroke="#565A56" stroke-width="2.83333" stroke-linecap="round" stroke-linejoin="round"></path>
</svg>
