<?xml version="1.0" encoding="UTF-8"?>
<svg xmlns="http://www.w3.org/2000/svg" width="18" height="18" viewBox="0 0 18 18" fill="none">
  <path fill-rule="evenodd" clip-rule="evenodd" d="M4.07827 17.1717V5.58541H0.227637V17.1716H4.07827V17.1717ZM2.15336 4.00409C3.49573 4.00409 4.33192 3.11365 4.33192 2.00183C4.30654 0.865301 3.49573 0 2.17853 0C0.861117 3.51563e-05 0 0.865336 0 2.00187C0 3.11368 0.835734 4.00412 2.12801 4.00412L2.15336 4.00409ZM6.20944 17.1717C6.20944 17.1717 6.25996 6.67252 6.20944 5.58545H10.0607V7.26571H10.0351C10.5415 6.47504 11.4538 5.31337 13.531 5.31337C16.0653 5.31337 17.9648 6.96934 17.9648 10.5282V17.1717H14.1142V10.9734C14.1142 9.41593 13.5571 8.35316 12.1631 8.35316C11.0995 8.35316 10.4657 9.06964 10.1873 9.76222C10.0854 10.0087 10.0607 10.355 10.0607 10.7013V17.1717H6.20944Z" fill="#A6A6A6"></path>
</svg>
